<?xml version="1.0" encoding="UTF-8" standalone="no"?>
<!DOCTYPE svg PUBLIC "-//W3C//DTD SVG 1.1//EN" "http://www.w3.org/Graphics/SVG/1.1/DTD/svg11.dtd">
<svg width="100%" height="100%" viewBox="0 22 30 30" version="1.1" xmlns="http://www.w3.org/2000/svg" xmlns:xlink="http://www.w3.org/1999/xlink" xml:space="preserve" xmlns:serif="http://www.serif.com/" style="fill-rule:evenodd;clip-rule:evenodd;stroke-linejoin:round;stroke-miterlimit:2;">
    <g>
        <clipPath id="_clip1">
            <rect x="0" y="22.424" width="29.282" height="29.153"/>
        </clipPath>
        <g clip-path="url(#_clip1)">
            <path d="M16.302,42.712C13.175,42.712 10.601,40.139 10.601,37.012C10.601,33.885 13.175,31.311 16.302,31.311C19.425,31.311 21.996,33.877 22.003,37C22.003,37.005 22.003,37.011 22.003,37.016C22.003,40.141 19.431,42.712 16.306,42.712C16.305,42.712 16.303,42.712 16.302,42.712M22.211,41.645L24.709,44.426C22.408,46.781 19.274,48.144 15.983,48.22C9.455,48.22 4.448,43.323 4.448,36.937C4.448,30.614 9.534,25.78 16.152,25.78C19.35,25.808 22.413,27.08 24.689,29.326L22.223,32.426C20.711,30.671 18.531,29.628 16.215,29.55C12.185,29.55 8.868,32.867 8.868,36.898C8.868,40.928 12.185,44.245 16.215,44.245C18.475,44.181 20.626,43.252 22.223,41.653M29.153,48.114L29.153,25.886C29.149,23.988 27.588,22.428 25.69,22.424L3.463,22.424C1.565,22.428 0.004,23.988 0,25.886L0,48.114C0.004,50.012 1.565,51.572 3.463,51.576L25.69,51.576C27.588,51.572 29.149,50.012 29.153,48.114" style="fill:white;fill-rule:nonzero;"/>
            <path d="M42.347,46.92C40.621,45.942 39.199,44.505 38.242,42.768C37.236,40.951 36.723,38.903 36.752,36.827C36.723,34.751 37.237,32.703 38.242,30.886C39.204,29.147 40.631,27.709 42.362,26.733C44.165,25.719 46.204,25.201 48.272,25.232C49.819,25.216 51.354,25.504 52.791,26.079C54.137,26.622 55.338,27.471 56.301,28.557L54.827,30.086C53.15,28.301 50.787,27.317 48.339,27.383C46.681,27.365 45.048,27.792 43.611,28.62C42.21,29.425 41.055,30.596 40.271,32.009C39.448,33.48 39.024,35.141 39.041,36.827C39.017,38.51 39.432,40.171 40.247,41.645C41.03,43.058 42.186,44.23 43.588,45.033C45.024,45.861 46.657,46.288 48.315,46.27C50.771,46.344 53.142,45.345 54.804,43.536L56.277,45.064C55.303,46.158 54.09,47.012 52.731,47.558C51.301,48.141 49.769,48.435 48.225,48.425C46.167,48.456 44.138,47.939 42.347,46.928" style="fill:white;fill-rule:nonzero;"/>
            <path d="M69.238,45.506C70.178,44.941 70.939,44.121 71.433,43.142C71.977,42.062 72.247,40.864 72.221,39.655C72.247,38.447 71.977,37.251 71.433,36.173C70.939,35.194 70.178,34.374 69.238,33.809C68.295,33.254 67.217,32.968 66.122,32.982C65.016,32.965 63.926,33.251 62.97,33.809C62.032,34.375 61.271,35.195 60.776,36.173C60.234,37.252 59.963,38.448 59.988,39.655C59.963,40.864 60.234,42.061 60.776,43.142C61.271,44.12 62.031,44.94 62.97,45.506C63.925,46.065 65.015,46.353 66.122,46.337C67.217,46.349 68.295,46.062 69.238,45.506M74.427,31.091L74.427,48.224L72.295,48.224L72.295,44.836C71.672,45.942 70.756,46.855 69.648,47.475C68.508,48.092 67.229,48.406 65.933,48.385C64.459,48.406 63.006,48.023 61.733,47.278C60.481,46.543 59.46,45.472 58.787,44.186C58.061,42.789 57.695,41.233 57.723,39.659C57.695,38.085 58.061,36.529 58.787,35.133C59.459,33.85 60.481,32.783 61.733,32.056C63.011,31.324 64.461,30.947 65.933,30.965C67.193,30.946 68.438,31.243 69.554,31.827C70.645,32.418 71.559,33.29 72.201,34.353L72.201,31.091L74.427,31.091Z" style="fill:white;fill-rule:nonzero;"/>
            <path d="M90.709,32.836C91.936,34.086 92.548,35.905 92.545,38.292L92.545,48.224L90.319,48.224L90.319,38.521C90.319,36.74 89.891,35.383 89.035,34.451C88.179,33.519 86.956,33.055 85.367,33.06C83.592,33.06 82.186,33.609 81.152,34.707C80.117,35.805 79.599,37.319 79.599,39.25L79.599,48.224L77.374,48.224L77.374,31.091L79.505,31.091L79.505,34.242C80.099,33.212 80.974,32.37 82.026,31.815C83.184,31.221 84.472,30.925 85.773,30.953C87.842,30.953 89.488,31.576 90.709,32.824" style="fill:white;fill-rule:nonzero;"/>
            <path d="M103.45,47.18C103.008,47.586 102.484,47.893 101.913,48.078C101.298,48.285 100.652,48.389 100.003,48.385C98.458,48.385 97.267,47.952 96.429,47.085C95.592,46.219 95.174,44.992 95.177,43.406L95.177,27.352L97.402,27.352L97.402,31.091L102.386,31.091L102.386,33.06L97.402,33.06L97.402,43.303C97.343,44.142 97.601,44.973 98.123,45.632C98.674,46.188 99.442,46.477 100.223,46.42C101.121,46.458 101.999,46.143 102.666,45.541L103.45,47.18Z" style="fill:white;fill-rule:nonzero;"/>
            <path d="M114.78,45.506C115.719,44.944 116.475,44.123 116.959,43.142C117.498,42.062 117.769,40.867 117.747,39.659C117.768,38.452 117.498,37.257 116.959,36.177C116.474,35.196 115.718,34.376 114.78,33.813C112.826,32.71 110.43,32.71 108.477,33.813C107.538,34.379 106.777,35.199 106.282,36.177C105.74,37.256 105.469,38.452 105.494,39.659C105.469,40.867 105.74,42.063 106.282,43.142C106.776,44.121 107.537,44.94 108.477,45.506C110.43,46.609 112.826,46.609 114.78,45.506M107.338,47.263C106.07,46.521 105.029,45.446 104.328,44.154C103.578,42.776 103.195,41.228 103.217,39.659C103.191,38.092 103.568,36.544 104.313,35.164C105.011,33.875 106.053,32.805 107.322,32.072C109.992,30.597 113.241,30.597 115.911,32.072C117.177,32.803 118.214,33.875 118.905,35.164C119.639,36.547 120.01,38.094 119.984,39.659C120.011,41.225 119.639,42.772 118.905,44.154C118.213,45.447 117.176,46.523 115.911,47.263C113.247,48.758 109.986,48.758 107.322,47.263" style="fill:white;fill-rule:nonzero;"/>
        </g>
    </g>
</svg>
